# xmcd CD database file
#
# Track frame offsets:
#	150
#	23058
#	41100
#	60864
#	79036
#	95897
#	115045
#	133171
#	151155
#	169501
#	188018
#	208108
#
# Disc length: 2996 seconds
#
# Revision: 0
# Processed by: cddbd v1.5.1PL0 Copyright (c) Steve Scherf et al.
# Submitted via: CDex 1.51
#
DISCID=950bb20c
DTITLE=Chelito De Castro - La fiesta de Chelito
DYEAR=1900
DGENRE=Salsa
TTITLE0=Go to verbena/Mercien Toussanint
TTITLE1=Eres el amor/Joseito Martinez
TTITLE2=Que tiene esa mujer/Alvaro Pava
TTITLE3=Lo que quiero/Moris Jimenez
TTITLE4=Domingo de carnaval/Joseito Martinez
TTITLE5=Yo tambien tuve 20 años/Saulo Sanchez
TTITLE6=Mi paloma/Juan piña
TTITLE7=Jibariando/Alvaro pava
TTITLE8=Aweizer/Mercien Toussanint
TTITLE9=Romantico/Juan Piña
TTITLE10=Pesares/Saulo Sanchez
TTITLE11=La chicharra/Chelito De Castro
EXTD=
EXTT0=
EXTT1=
EXTT2=
EXTT3=
EXTT4=
EXTT5=
EXTT6=
EXTT7=
EXTT8=
EXTT9=
EXTT10=
EXTT11=
PLAYORDER=
